<?xml version="1.0" encoding="utf-8"?>
<!-- Generator: Adobe Illustrator 27.8.1, SVG Export Plug-In . SVG Version: 6.00 Build 0)  -->
<svg version="1.0" id="Layer_1" xmlns="http://www.w3.org/2000/svg" xmlns:xlink="http://www.w3.org/1999/xlink" x="0px" y="0px"
	 viewBox="0 0 24 24" style="enable-background:new 0 0 24 24;" xml:space="preserve">
<style type="text/css">
	.st0{fill:#00635D;}
	.st1{fill-rule:evenodd;clip-rule:evenodd;fill:#00635D;}
</style>
<path class="st0" d="M19.3,7.6c0,1.2-1,2.2-2.2,2.2s-2.2-1-2.2-2.2s1-2.2,2.2-2.2S19.3,6.4,19.3,7.6z"/>
<path class="st1" d="M13.5,6.9h-2.9c-2.7,0-4.1,0-5,0.9c-0.9,0.9-0.9,2.2-0.9,5c0,2.7,0,4.1,0.9,5c0.9,0.9,2.2,0.9,5,0.9h2.9
	c2.7,0,4.1,0,5-0.9c0.9-0.9,0.9-2.2,0.9-5c0-1.1,0-1.9,0-2.6c-0.6,0.5-1.3,0.8-2.1,0.8c-0.3,0-0.7-0.1-1-0.2l-1,0.8
	c-0.6,0.5-1.2,1-1.6,1.3c-0.5,0.3-0.9,0.5-1.5,0.5s-1-0.2-1.5-0.5c-0.5-0.3-1-0.7-1.6-1.3l-1.6-1.3C7.1,10,7,9.7,7.2,9.5
	C7.4,9.2,7.8,9.2,8,9.4l1.6,1.3c0.7,0.6,1.1,1,1.5,1.2c0.4,0.2,0.6,0.3,0.9,0.3s0.5-0.1,0.9-0.3c0.4-0.3,0.9-0.6,1.5-1.2l0.6-0.5
	c-0.8-0.6-1.2-1.5-1.2-2.6c0-0.2,0-0.5,0.1-0.7C13.8,6.9,13.6,6.9,13.5,6.9z"/>
</svg>
