<svg xmlns="http://www.w3.org/2000/svg" xmlns:xlink="http://www.w3.org/1999/xlink" viewBox="0 0 1005.75 319.94"><defs><style>.cls-1{fill:url(#linear-gradient);}.cls-2{fill:#717171;}.cls-3{fill:#303030;}</style><linearGradient id="linear-gradient" x1="699.02" y1="159.97" x2="1005.75" y2="159.97" gradientUnits="userSpaceOnUse"><stop offset="0" stop-color="#00635d"></stop><stop offset="1"></stop></linearGradient></defs><g id="Layer_2" data-name="Layer 2"><g id="Layer_4" data-name="Layer 4"><path class="cls-1" d="M935.62,237c.6-.66,1.07-1.19,1.56-1.72,32.15-34.52,44.79-75.22,36.38-121.53-7.47-41.19-30.06-73-66.21-93.94C864-5.29,818.9-6.55,774.26,16.1c-38.7,19.65-62.46,51.78-72.17,94.16-3.19,13.91-3.08,28.07-3.07,42.23,0,51,0,162.34,0,167.14h88.53c0-7.9,0-42.81,0-52.62,0-17.87,26.93-27.33,41-16.69a20.19,20.19,0,0,1,2.73,2.58l48.44,53.91A46.2,46.2,0,0,0,912,319.94c23.15,0,89.68-.12,93.72-.12Zm-148-88.82c0-6.46-.11-13.09,1.15-19.37,5.16-25.58,28.78-42.29,54.92-39.36,27.52,3.08,47.74,29.53,43.42,56.86-.1.65-.21,1.28-.34,1.91-3.41,17.71-16.84,31.82-34.15,36.88l-65,19S787.55,170.73,787.58,148.17Z"></path><path class="cls-2" d="M31.34,272.48a2.56,2.56,0,0,1-2.07,1.3,3.15,3.15,0,0,1-1.64-.54c-.59-.35-1.29-.76-2.11-1.22a16.36,16.36,0,0,0-2.84-1.23,12.39,12.39,0,0,0-3.83-.53q-4,0-5.94,1.84A6.23,6.23,0,0,0,11,276.85a4.61,4.61,0,0,0,1.76,3.83,16.67,16.67,0,0,0,4.37,2.37c1.74.67,3.64,1.29,5.71,1.88a23.77,23.77,0,0,1,5.71,2.45,14.25,14.25,0,0,1,4.37,4.14,11.8,11.8,0,0,1,1.76,6.78,17.63,17.63,0,0,1-1.19,6.48A14.2,14.2,0,0,1,30,310a16.51,16.51,0,0,1-5.59,3.45,20.93,20.93,0,0,1-7.51,1.26,24.75,24.75,0,0,1-9.43-1.84A21.48,21.48,0,0,1,0,308l2.84-4.37a3.94,3.94,0,0,1,.91-.81,2.12,2.12,0,0,1,1.16-.34,3.32,3.32,0,0,1,1.87.73c.69.48,1.5,1,2.42,1.61a18.48,18.48,0,0,0,3.33,1.61,13.42,13.42,0,0,0,4.64.72,9.25,9.25,0,0,0,6.24-1.95,6.93,6.93,0,0,0,2.26-5.56A5.19,5.19,0,0,0,24,295.47a14.3,14.3,0,0,0-4.37-2.42q-2.64-.94-5.67-1.8a23,23,0,0,1-5.67-2.41,13.14,13.14,0,0,1-4.37-4.25,13.52,13.52,0,0,1-1.72-7.36,13.81,13.81,0,0,1,1.11-5.4,13.67,13.67,0,0,1,3.25-4.68,16.1,16.1,0,0,1,5.25-3.25,19.16,19.16,0,0,1,7.09-1.23,24.17,24.17,0,0,1,8.32,1.38,18.83,18.83,0,0,1,6.55,4Z"></path><path class="cls-2" d="M53,314.7c-3.12,0-5.5-.86-7.16-2.6a10,10,0,0,1-2.5-7.21V284.43H39.62a1.76,1.76,0,0,1-1.26-.46,1.65,1.65,0,0,1-.5-1.3V279.3l6-.84,1.77-10.2c.15-.86.79-1.3,1.91-1.3H52v11.5h9.58v6H52v19.85a4.09,4.09,0,0,0,.81,2.72,2.88,2.88,0,0,0,2.34,1,3.57,3.57,0,0,0,2.33-.61,2.18,2.18,0,0,1,1.34-.62,1.68,1.68,0,0,1,1.23.77l2.53,4a14.39,14.39,0,0,1-4.41,2.37A16,16,0,0,1,53,314.7Z"></path><path class="cls-2" d="M66.06,283a21.29,21.29,0,0,1,15-5.67,14.8,14.8,0,0,1,5.71,1A12.51,12.51,0,0,1,91,281.21a12.33,12.33,0,0,1,2.68,4.41,16.42,16.42,0,0,1,.92,5.63v22.92h-4a4.43,4.43,0,0,1-1.92-.31,2.61,2.61,0,0,1-1.07-1.53l-.62-2.76a27.22,27.22,0,0,1-5.47,3.79A14.55,14.55,0,0,1,75,314.7a11.63,11.63,0,0,1-7.67-2.41c-1.94-1.61-2.91-4.07-2.91-7.4a8.41,8.41,0,0,1,1.07-4,10.08,10.08,0,0,1,3.61-3.6,22.51,22.51,0,0,1,6.7-2.65,49.06,49.06,0,0,1,10.38-1.18v-2.23q0-3.75-1.6-5.55A5.77,5.77,0,0,0,80,283.9a10.65,10.65,0,0,0-3.48.49,12.44,12.44,0,0,0-2.45,1.15c-.69.44-1.33.82-1.92,1.15a3.83,3.83,0,0,1-2,.5,2.87,2.87,0,0,1-1.58-.42,2.59,2.59,0,0,1-1-1Zm20.07,15.63a43.48,43.48,0,0,0-6.39.65,16.72,16.72,0,0,0-4.14,1.27,5.53,5.53,0,0,0-2.26,1.8A4.48,4.48,0,0,0,74,308a5.67,5.67,0,0,0,3.6,1.07A9.35,9.35,0,0,0,82.3,308a17.32,17.32,0,0,0,3.83-3Z"></path><path class="cls-2" d="M110.5,282.59a19.26,19.26,0,0,1,4.87-3.79,13.45,13.45,0,0,1,6.4-1.42,13.31,13.31,0,0,1,5.29,1,10.17,10.17,0,0,1,3.83,2.83,13,13,0,0,1,2.34,4.37,18.61,18.61,0,0,1,.8,5.6v23h-8.74v-23a8.41,8.41,0,0,0-1.53-5.37,5.64,5.64,0,0,0-4.67-1.91,8.49,8.49,0,0,0-4.26,1.11,16.2,16.2,0,0,0-3.71,2.95v26.21h-8.74V278h5.29a2.06,2.06,0,0,1,2.22,1.45Z"></path><path class="cls-2" d="M173.57,262l-.07,52.19h-5.29a2.12,2.12,0,0,1-2.3-1.54l-.61-3.6a17.59,17.59,0,0,1-5.06,4.14,14,14,0,0,1-6.74,1.53,12.12,12.12,0,0,1-5.45-1.22,11.94,11.94,0,0,1-4.21-3.57,17.36,17.36,0,0,1-2.76-5.78,29,29,0,0,1-1-8,23.86,23.86,0,0,1,1.12-7.44,18.88,18.88,0,0,1,3.1-6,14.37,14.37,0,0,1,4.87-4,14.09,14.09,0,0,1,6.47-1.45,13.4,13.4,0,0,1,5.25.92,11.28,11.28,0,0,1,3.87,2.68l.15-18.93Zm-8.81,25.14a8.55,8.55,0,0,0-3.26-2.65,9.52,9.52,0,0,0-3.71-.73,7.62,7.62,0,0,0-6.44,3q-2.29,3-2.3,9.39t2,9.16a6.45,6.45,0,0,0,5.44,2.64,9.24,9.24,0,0,0,4.64-1.11,12.24,12.24,0,0,0,3.64-3.33Z"></path><path class="cls-2" d="M242.24,288.72a28.17,28.17,0,0,1-1.88,10.43,23.81,23.81,0,0,1-13.45,13.6,29.76,29.76,0,0,1-21.19,0,24.67,24.67,0,0,1-8.24-5.4,23.77,23.77,0,0,1-5.32-8.2,29.73,29.73,0,0,1,0-20.81,24.2,24.2,0,0,1,5.32-8.28,24.62,24.62,0,0,1,8.24-5.44,29.76,29.76,0,0,1,21.19,0,24.18,24.18,0,0,1,8.16,5.44,24.58,24.58,0,0,1,5.29,8.28A28.24,28.24,0,0,1,242.24,288.72Zm-9.74,0q0-8.58-4.29-13.41t-11.88-4.82c-5.05,0-9,1.61-11.91,4.82s-4.33,7.69-4.33,13.41,1.44,10.24,4.33,13.38,6.86,4.71,11.91,4.71,9-1.57,11.88-4.71S232.5,294.5,232.5,288.72Z"></path><path class="cls-2" d="M280.09,278v36.17h-5.21a2.13,2.13,0,0,1-2.3-1.54l-.53-3.14a15.92,15.92,0,0,1-4.91,3.83,14.21,14.21,0,0,1-6.44,1.38q-6,0-9.08-3.79a15,15,0,0,1-3.1-9.85V278h8.66v23.06a7.9,7.9,0,0,0,1.53,5.25,5.8,5.8,0,0,0,4.68,1.8q4.44,0,8-4V278Z"></path><path class="cls-2" d="M300.32,314.7c-3.11,0-5.5-.86-7.16-2.6a10,10,0,0,1-2.49-7.21V284.43h-3.76a1.76,1.76,0,0,1-1.26-.46,1.68,1.68,0,0,1-.5-1.3V279.3l6-.84,1.76-10.2c.15-.86.79-1.3,1.92-1.3h4.52v11.5h9.58v6h-9.58v19.85a4.14,4.14,0,0,0,.8,2.72,2.89,2.89,0,0,0,2.34,1,3.62,3.62,0,0,0,2.34-.61,2.16,2.16,0,0,1,1.34-.62,1.66,1.66,0,0,1,1.22.77l2.53,4a14.22,14.22,0,0,1-4.4,2.37A16.11,16.11,0,0,1,300.32,314.7Z"></path><path class="cls-2" d="M347.84,294.32v19.85h-9.43V294.32l-18.62-31h8.27a3,3,0,0,1,2,.58,4.84,4.84,0,0,1,1.15,1.41l9.42,17.4c.56.92,1.06,1.83,1.5,2.72s.8,1.75,1.11,2.57a28.89,28.89,0,0,1,2.45-5.29l9.27-17.4a4.11,4.11,0,0,1,1.15-1.37,3.09,3.09,0,0,1,2-.62h8.43Z"></path><path class="cls-2" d="M386,277.38a19.76,19.76,0,0,1,7.35,1.31A15.84,15.84,0,0,1,399,282.4a16.39,16.39,0,0,1,3.6,5.87,22.34,22.34,0,0,1,1.26,7.73,22.71,22.71,0,0,1-1.26,7.78,16.26,16.26,0,0,1-3.6,5.9,15.86,15.86,0,0,1-5.64,3.72,21.46,21.46,0,0,1-14.71,0,15.8,15.8,0,0,1-9.31-9.62,22.71,22.71,0,0,1-1.26-7.78,22.34,22.34,0,0,1,1.26-7.73,15.81,15.81,0,0,1,9.31-9.58A19.85,19.85,0,0,1,386,277.38Zm0,30.81q4.59,0,6.78-3.1c1.46-2.07,2.18-5.07,2.18-9s-.72-7-2.18-9.12-3.72-3.14-6.78-3.14-5.33,1.05-6.78,3.14S377,292.1,377,296.08s.73,6.94,2.19,9S382.93,308.19,386,308.19Z"></path><path class="cls-2" d="M441.4,278v36.17h-5.21a2.13,2.13,0,0,1-2.3-1.54l-.53-3.14a15.92,15.92,0,0,1-4.91,3.83A14.19,14.19,0,0,1,422,314.7q-6,0-9.09-3.79a15.1,15.1,0,0,1-3.1-9.85V278h8.66v23.06a7.9,7.9,0,0,0,1.53,5.25,5.82,5.82,0,0,0,4.68,1.8q4.44,0,8.05-4V278Z"></path><path class="cls-2" d="M457.8,284.59a14.39,14.39,0,0,1,4-5.41,8.75,8.75,0,0,1,5.59-1.87,7.37,7.37,0,0,1,4.06,1l-.61,6.36a1.34,1.34,0,0,1-1.38,1.15,8.43,8.43,0,0,1-1.53-.19,10.77,10.77,0,0,0-2.07-.19,6.55,6.55,0,0,0-4.64,1.61,12.11,12.11,0,0,0-2.87,4.67v22.46H449.6V278h5.14a2.83,2.83,0,0,1,1.84.46,2.44,2.44,0,0,1,.69,1.53Z"></path><path class="cls-2" d="M504.93,263.28q10,0,14.37,3.53t4.41,9.88a10.72,10.72,0,0,1-2.22,6.63,13.79,13.79,0,0,1-7,4.49q5.43,1.21,8.12,4a10.22,10.22,0,0,1,2.68,7.39,14.42,14.42,0,0,1-1.26,6.06,13.18,13.18,0,0,1-3.64,4.71,17.64,17.64,0,0,1-5.83,3.07,25.75,25.75,0,0,1-7.89,1.11H487.31V263.28Zm-8.2,7.05v14.95h6.82a29.93,29.93,0,0,0,4.1-.27,10.2,10.2,0,0,0,3.45-1.07,5.81,5.81,0,0,0,2.34-2.27,7.6,7.6,0,0,0,.84-3.83q0-4.14-2.26-5.82c-1.51-1.12-3.87-1.69-7.09-1.69ZM506.47,307a14.13,14.13,0,0,0,4.44-.61,7.2,7.2,0,0,0,2.91-1.69,6.36,6.36,0,0,0,1.57-2.52,9.72,9.72,0,0,0,.5-3.15,7,7,0,0,0-2.11-5.25q-2.1-2-7.31-2h-9.74V307Z"></path><path class="cls-2" d="M540.18,284.59a14.39,14.39,0,0,1,4-5.41,8.75,8.75,0,0,1,5.59-1.87,7.37,7.37,0,0,1,4.06,1l-.61,6.36a1.34,1.34,0,0,1-1.38,1.15,8.43,8.43,0,0,1-1.53-.19,10.77,10.77,0,0,0-2.07-.19,6.55,6.55,0,0,0-4.64,1.61,12.11,12.11,0,0,0-2.87,4.67v22.46H532V278h5.14a2.83,2.83,0,0,1,1.84.46,2.44,2.44,0,0,1,.69,1.53Z"></path><path class="cls-2" d="M557.12,283a21.3,21.3,0,0,1,15-5.67,14.8,14.8,0,0,1,5.71,1,12.42,12.42,0,0,1,4.25,2.87,12.19,12.19,0,0,1,2.68,4.41,16.42,16.42,0,0,1,.92,5.63v22.92h-4a4.43,4.43,0,0,1-1.92-.31,2.66,2.66,0,0,1-1.07-1.53l-.61-2.76a27.26,27.26,0,0,1-5.48,3.79A14.55,14.55,0,0,1,566,314.7a11.64,11.64,0,0,1-7.67-2.41c-1.94-1.61-2.91-4.07-2.91-7.4a8.31,8.31,0,0,1,1.08-4,10,10,0,0,1,3.6-3.6,22.51,22.51,0,0,1,6.7-2.65,49.08,49.08,0,0,1,10.39-1.18v-2.23q0-3.75-1.61-5.55a5.76,5.76,0,0,0-4.52-1.8,10.67,10.67,0,0,0-3.49.49,12.72,12.72,0,0,0-2.45,1.15c-.69.44-1.33.82-1.92,1.15a3.83,3.83,0,0,1-2,.5,2.81,2.81,0,0,1-1.57-.42,2.55,2.55,0,0,1-1-1Zm20.08,15.63a43.49,43.49,0,0,0-6.4.65,17,17,0,0,0-4.14,1.27,5.53,5.53,0,0,0-2.26,1.8,4.48,4.48,0,0,0,.69,5.63,5.67,5.67,0,0,0,3.6,1.07,9.42,9.42,0,0,0,4.68-1.07,17.79,17.79,0,0,0,3.83-3Z"></path><path class="cls-2" d="M601.57,282.59a19,19,0,0,1,4.86-3.79,13.45,13.45,0,0,1,6.4-1.42,13.27,13.27,0,0,1,5.29,1,10.17,10.17,0,0,1,3.83,2.83,13,13,0,0,1,2.34,4.37,18.61,18.61,0,0,1,.8,5.6v23h-8.73v-23a8.41,8.41,0,0,0-1.54-5.37,5.64,5.64,0,0,0-4.67-1.91A8.45,8.45,0,0,0,605.9,285a16,16,0,0,0-3.72,2.95v26.21h-8.74V278h5.29a2,2,0,0,1,2.22,1.45Z"></path><path class="cls-2" d="M664.64,262l-.08,52.19h-5.29a2.12,2.12,0,0,1-2.3-1.54l-.61-3.6a17.59,17.59,0,0,1-5.06,4.14,14,14,0,0,1-6.74,1.53,11.64,11.64,0,0,1-9.66-4.79,17.75,17.75,0,0,1-2.76-5.78,29,29,0,0,1-1-8,24.16,24.16,0,0,1,1.11-7.44,18.88,18.88,0,0,1,3.1-6,14.37,14.37,0,0,1,4.87-4,14.09,14.09,0,0,1,6.47-1.45,13.33,13.33,0,0,1,5.25.92,11.28,11.28,0,0,1,3.87,2.68L656,262Zm-8.82,25.14a8.6,8.6,0,0,0-3.25-2.65,9.57,9.57,0,0,0-3.72-.73,7.62,7.62,0,0,0-6.44,3q-2.29,3-2.3,9.39c0,4.34.67,7.39,2,9.16a6.47,6.47,0,0,0,5.45,2.64,9.22,9.22,0,0,0,4.63-1.11,12.12,12.12,0,0,0,3.64-3.33Z"></path><rect class="cls-3" x="116.59" y="190.44" width="15.38" height="14.74"></rect><path class="cls-3" d="M116.59,152.07q0,3.68-1.59,5.4t-5.28,1.71h-63v-2.79A37,37,0,0,0,45,144.31a21.62,21.62,0,0,0-4.63-8,17.75,17.75,0,0,0-6.8-4.45,24.07,24.07,0,0,0-8.2-1.4,22.08,22.08,0,0,0-9.59,2,19.89,19.89,0,0,0-6.86,5.28,22.45,22.45,0,0,0-4.13,7.81A31.6,31.6,0,0,0,3.37,155a40.31,40.31,0,0,0,1,9.21A15.84,15.84,0,0,0,7.69,171a14.59,14.59,0,0,0,6.61,4.19,34.52,34.52,0,0,0,10.8,1.4h6a15.94,15.94,0,0,1-4.32,9.47q-3.69,3.87-12.2,3.87H2l.76,17.41H15.19a31.49,31.49,0,0,0,12.7-2.48,29.16,29.16,0,0,0,9.72-6.67,30.82,30.82,0,0,0,6.29-9.78,36.75,36.75,0,0,0,2.67-11.82h64.55q10.55,0,16.08-5.78t5.52-17.35V138.85H116.59Zm-85.27,7.11H25.1q-3.69,0-5-1.2c-.89-.81-1.34-2.23-1.34-4.26q0-6.48,6.1-6.48a6.23,6.23,0,0,1,4.9,1.78c1.05,1.18,1.58,3.39,1.58,6.6Z"></path><rect class="cls-3" x="97.02" y="190.44" width="15.38" height="14.74"></rect><path class="cls-3" d="M189.4,143.81l-21-24.53L155.85,131.1l20.2,23.13a3.63,3.63,0,0,1,1.27,2.54c0,1.61-1.1,2.41-3.3,2.41H143.27l.64,17.41h32.91a24.93,24.93,0,0,0,8.51-1.33,18,18,0,0,0,6.16-3.62,14.46,14.46,0,0,0,3.69-5.34,17.56,17.56,0,0,0,1.21-6.48,20.3,20.3,0,0,0-1.72-7.88A30.43,30.43,0,0,0,189.4,143.81Z"></path><rect class="cls-3" x="327.01" y="110.13" width="15.38" height="14.74"></rect><rect class="cls-3" x="307.44" y="110.13" width="15.38" height="14.74"></rect><path class="cls-3" d="M419.26,152.07q0,7.11-6.22,7.11a6.23,6.23,0,0,1-4.39-1.71q-1.84-1.72-1.84-5.4V138.85H390.67v13.22q0,3.68-1.78,5.4t-6,1.71a8.59,8.59,0,0,1-5.4-1.71q-2.22-1.72-2.22-5.4V138.85h-16v13.22q0,7.11-7,7.11h-9.15a9.7,9.7,0,0,1-6-1.71q-2.3-1.72-2.29-5.4V138.85H318.75v13.22q0,3.68-1.65,5.4t-5.34,1.71H252.3v-2.79a37.3,37.3,0,0,0-1.72-12.08,21.5,21.5,0,0,0-4.64-8,17.67,17.67,0,0,0-6.8-4.45,24,24,0,0,0-8.19-1.4,22.15,22.15,0,0,0-9.6,2,20,20,0,0,0-6.86,5.28,22.62,22.62,0,0,0-4.13,7.81A31.91,31.91,0,0,0,209,155a39.76,39.76,0,0,0,.95,9.21,15.73,15.73,0,0,0,3.37,6.8,14.55,14.55,0,0,0,6.6,4.19,34.61,34.61,0,0,0,10.8,1.4h6a16.06,16.06,0,0,1-4.32,9.47q-3.69,3.87-12.2,3.87H207.57l.76,17.41h12.45a31.5,31.5,0,0,0,12.71-2.48,29.36,29.36,0,0,0,9.72-6.67,30.82,30.82,0,0,0,6.29-9.78,36.75,36.75,0,0,0,2.67-11.82h59.59a20.8,20.8,0,0,0,7.82-1.46q3.62-1.45,6.92-6.29,3.18,4.83,7.18,6.29a25.68,25.68,0,0,0,8.83,1.46h9.79a20.75,20.75,0,0,0,7.81-1.46q3.63-1.45,6.8-6.29,3.18,4.83,7.24,6.29a25.87,25.87,0,0,0,8.77,1.46,24.34,24.34,0,0,0,8.26-1.46q4.06-1.45,7.24-6.29,3.18,4.83,7.18,6.29a23.49,23.49,0,0,0,8.07,1.46q10.54,0,16.14-5.78t5.59-17.35V138.85H419.26Zm-182.34,7.11h-6.23c-2.45,0-4.13-.4-5-1.2s-1.34-2.23-1.34-4.26q0-6.48,6.1-6.48a6.22,6.22,0,0,1,4.89,1.78c1.06,1.18,1.59,3.39,1.59,6.6Z"></path><rect class="cls-3" x="449.38" y="97.81" width="16.14" height="78.78"></rect><path class="cls-3" d="M552.81,159.18h-8.38v-7.75q0-6.35,6.35-6.35H566l-.64-17.41H550.78a24.67,24.67,0,0,0-9.4,1.71,20.15,20.15,0,0,0-7.12,4.83,21.1,21.1,0,0,0-4.45,7.31,26.7,26.7,0,0,0-1.52,9.15v25.92H550q4.18,0,4.19,4.19c0,2.8-1.59,5-4.76,6.68s-8.12,2.47-14.81,2.47h-7a22.93,22.93,0,0,1-7.81-1.14,11.86,11.86,0,0,1-5-3.24,12.1,12.1,0,0,1-2.6-5.08,26.93,26.93,0,0,1-.76-6.67V151.43h-16v23.13q0,15.24,7.88,24t22.11,8.77H536.8a39.3,39.3,0,0,0,13.41-2.22A32.47,32.47,0,0,0,560.82,199a28.11,28.11,0,0,0,6.92-9.28A27.32,27.32,0,0,0,570.22,178q0-8.9-3.75-13.85T552.81,159.18Z"></path><path class="cls-3" d="M631.91,166.3a17.36,17.36,0,0,0,1.21-6.48,20.28,20.28,0,0,0-1.71-7.88,30.73,30.73,0,0,0-5.28-8.13l-21-24.53L592.59,131.1l20.2,23.13a3.63,3.63,0,0,1,1.27,2.54c0,1.61-1.1,2.41-3.3,2.41H580l.63,17.41h32.91a25,25,0,0,0,8.52-1.33,18.09,18.09,0,0,0,6.16-3.62A14.44,14.44,0,0,0,631.91,166.3Z"></path><polygon class="cls-3" points="622.45 230.09 626 239.11 656.75 226.53 653.2 217.51 622.45 230.09"></polygon><path class="cls-3" d="M648.5,138.85v35.71a16.89,16.89,0,0,1-1,5.65,12.47,12.47,0,0,1-3.17,4.89,16.44,16.44,0,0,1-5.85,3.5,26.09,26.09,0,0,1-9,1.33h-4.82l.63,17.41h8.39A28.36,28.36,0,0,0,646,204.67a31.06,31.06,0,0,0,9.78-7.18A33.23,33.23,0,0,0,662.28,187a33.63,33.63,0,0,0,2.36-12.45V138.85Z"></path></g></g></svg>