<?xml version="1.0" encoding="utf-8"?>
<!-- Generator: Adobe Illustrator 27.8.1, SVG Export Plug-In . SVG Version: 6.00 Build 0)  -->
<svg version="1.0" id="Layer_1" xmlns="http://www.w3.org/2000/svg" xmlns:xlink="http://www.w3.org/1999/xlink" x="0px" y="0px"
	 viewBox="0 0 24 24" style="enable-background:new 0 0 24 24;" xml:space="preserve">
<style type="text/css">
	.st0{fill:#FFFFFF;}
	.st1{fill-rule:evenodd;clip-rule:evenodd;fill:#FFFFFF;}
</style>
<path class="st0" d="M22,6c0,1.7-1.3,3-3,3s-3-1.3-3-3s1.3-3,3-3S22,4.3,22,6z"/>
<path class="st1" d="M14,5h-4C6.2,5,4.3,5,3.2,6.2C2,7.3,2,9.2,2,13c0,3.8,0,5.7,1.2,6.8C4.3,21,6.2,21,10,21h4c3.8,0,5.7,0,6.8-1.2
	C22,18.7,22,16.8,22,13c0-1.5,0-2.6-0.1-3.6c-0.8,0.7-1.8,1.1-2.9,1.1c-0.5,0-0.9-0.1-1.4-0.2l-1.3,1.1c-0.9,0.7-1.6,1.3-2.2,1.7
	c-0.7,0.4-1.3,0.7-2,0.7s-1.4-0.3-2-0.7c-0.6-0.4-1.4-1-2.2-1.7L5.5,9.6C5.2,9.3,5.2,8.8,5.4,8.5c0.3-0.3,0.7-0.4,1.1-0.1l2.2,1.8
	c0.9,0.8,1.6,1.3,2.1,1.7c0.5,0.3,0.9,0.5,1.2,0.5s0.7-0.1,1.2-0.5c0.5-0.4,1.2-0.9,2.1-1.7l0.8-0.7c-1-0.8-1.7-2.1-1.7-3.5
	c0-0.3,0-0.7,0.1-1C14.4,5,14.2,5,14,5z"/>
</svg>
